<svg width="120" height="120" viewBox="0 0 120 120" fill="none" xmlns="http://www.w3.org/2000/svg">
<rect width="120" height="120" rx="8" fill="#E6E6E6"/>
<path d="M59.7145 103C60.2135 103.867 60.2136 103.867 60.2138 103.866L60.2145 103.866L60.2173 103.864L60.2279 103.858L60.2694 103.834L60.4308 103.741C60.5724 103.659 60.7811 103.537 61.0501 103.38C61.588 103.065 62.3673 102.606 63.3343 102.028C65.2681 100.873 67.9538 99.2439 70.9622 97.3458C76.9678 93.5565 84.3007 88.6702 89.4976 84.3397C100.508 75.165 106.429 62.1901 106.429 51.5714C106.429 44.1762 106.174 38.9397 101.668 32.7002C99.3499 29.4904 96.9309 26.8079 94.0445 24.9316C91.1378 23.0421 87.8043 22.0009 83.7148 22C75.754 21.9982 70.1325 24.6707 66.2229 27.3329C64.5152 28.4957 63.1302 29.6601 62.0477 30.5701C61.8987 30.6954 61.7554 30.8158 61.6179 30.9308C61.0376 31.4156 60.585 31.7803 60.2177 32.023C59.9018 32.2319 59.7576 32.2743 59.7307 32.2833C59.6964 32.2728 59.5348 32.2223 59.1878 31.9943C58.8046 31.7425 58.3333 31.3705 57.7416 30.8853C57.5697 30.7443 57.3896 30.5954 57.2012 30.4397C56.1166 29.5429 54.7589 28.4204 53.14 27.3022C49.3217 24.6649 43.9826 22 36.8574 22C32.6006 22 29.0543 22.9536 25.9395 24.7972C22.8373 26.6333 20.2194 29.3188 17.7628 32.6977C13.2339 38.927 13.0356 44.1839 13.0003 51.5666C12.9789 56.0283 14.3133 61.969 17.0082 67.8956C19.707 73.8308 23.8028 79.8242 29.3696 84.3475C33.9946 88.1055 41.4718 92.992 47.7558 96.9195C50.9053 98.8879 53.768 100.623 55.8434 101.867C56.8812 102.489 57.7223 102.987 58.3043 103.331C58.5954 103.503 58.8216 103.636 58.9753 103.726L59.1503 103.829L59.1952 103.855L59.2067 103.861L59.2096 103.863L59.2104 103.864C59.2106 103.864 59.2107 103.864 59.7145 103ZM59.7145 103L59.2107 103.864C59.5203 104.044 59.9029 104.045 60.2135 103.867L59.7145 103Z" fill="#CDCDCD" stroke="#E6E6E6" stroke-width="2" stroke-linejoin="round"/>
<path d="M30.4999 84.5C30.4999 84.5 38.622 77.7307 39.7139 72.7106C40.3305 69.8758 38.9973 68.0932 39.7139 65.282C40.6313 61.683 43.7139 57.282 44.8568 57.282C45.9996 57.282 45.9996 62.4249 46.571 63.5677C47.2197 64.8651 49.7139 63.5677 49.7139 63.5677M57.9996 102.5V90.4249L51.4999 98.5C51.4999 98.5 51.3482 90.9963 51.7139 89.8534C52.2625 88.1392 53.2363 88.7148 53.9996 86.4249C54.917 83.6727 53.9996 77.282 55.1425 77.282C56.9416 77.282 58.0924 76.8209 59.1425 74.9963C60.1927 73.1717 60.5427 69.8315 59.7139 69.5C58.8851 69.1685 58.2849 68.9613 57.4282 68.7106C56.8568 68.5433 55.6404 67.992 55.1425 66.9963C54.5711 65.8534 54.2329 64.5979 52.8568 64.1392C51.4807 63.6805 49.7139 63.5677 49.7139 63.5677M49.7139 63.5677L55.1425 58.3977M55.7139 57.8534C55.7139 57.8534 55.976 53.0828 56.8568 49.8534C57.9153 45.9721 59.1425 42.4585 61.4282 40.7106C62.0674 40.2218 62.4228 39.9276 63.1425 39.5677C65.7373 38.2703 67.9239 38.381 70.5711 39.5677C72.8749 40.6005 72.7861 43.2328 75.1425 44.1392C77.2253 44.9402 79.8576 44.4285 81.0004 45C82.1433 45.5715 81.6235 48.7105 81.4282 49.2819C81.0074 50.5132 80.2854 51.3773 79.1425 52.1392C77.4282 53.2819 73.9996 52.1392 72.8568 52.7106C71.4112 53.4334 72.8568 62.4249 72.8568 62.4249L72.9447 63.5677M55.7139 57.8534C55.7139 57.8534 58.1879 58.1873 59.7139 57.8534C60.8879 57.5966 61.7427 57.4581 62.5711 56.7105C63.0397 56.2876 63.1425 55.6275 63.1425 54.9963C63.1425 53.8534 63.1425 50.4249 63.1425 50.4249M55.7139 57.8534L55.1425 58.3977M71.7139 83.5677C71.7139 83.5677 73.4538 79.8363 73.9996 77.282C75.1222 72.029 72.9447 63.5677 72.9447 63.5677M71.7139 83.5677C71.7139 83.5677 67.0948 86.719 66.5711 86.9962C66.1301 87.2297 64.6382 88.3578 64.2854 88.7106C63.7139 89.2819 63.9999 101 63.9999 101M71.7139 83.5677V96M55.1425 58.3977C55.1425 58.3977 58.5636 60.2869 60.8568 61.282C63.2529 62.3218 64.5647 63.1467 67.1425 63.5677C69.3788 63.9329 72.9447 63.5677 72.9447 63.5677M19.4996 52.1392C19.4996 52.1392 19.3997 56.1023 20.1421 58.2068C21 60.6392 21.9996 62.2069 21.9996 62.2069M25.5 68.6392C25.5 68.6392 27.0285 72.5371 28.7135 74.2068C30.9663 76.4393 34.9992 79.3497 34.9992 79.3497M76.9992 84.7819C76.9992 84.7819 83.2359 80.1597 86.5 77.5C90.0496 74.6076 94 69.5 94 69.5M97 64.782C97 64.782 98.9483 60.8768 99.2849 59.0677C99.6141 57.2989 99.8564 54.4963 99.8564 54.4963M99.8564 48.2819V45" stroke="#E6E6E6" stroke-width="2.28571" stroke-linecap="round" stroke-linejoin="round"/>
<circle cx="50.0004" cy="70.4262" r="1.71429" fill="#E6E6E6"/>
<circle cx="68.2856" cy="45.2826" r="1.71429" fill="#E6E6E6"/>
</svg>
